<?xml version="1.0" encoding="UTF-8" standalone="no"?>
<!-- Created with Inkscape (http://www.inkscape.org/) -->

<svg
   width="79.730446mm"
   height="25.701212mm"
   viewBox="0 0 79.730446 25.701212"
   version="1.1"
   id="svg1"
   inkscape:export-filename="../Downloads/veselka_logo.svg"
   inkscape:export-xdpi="96"
   inkscape:export-ydpi="96"
   inkscape:version="1.3-dev (77bc73e, 2022-05-18)"
   sodipodi:docname="veselka_logo_raw.svg"
   xmlns:inkscape="http://www.inkscape.org/namespaces/inkscape"
   xmlns:sodipodi="http://sodipodi.sourceforge.net/DTD/sodipodi-0.dtd"
   xmlns="http://www.w3.org/2000/svg"
   xmlns:svg="http://www.w3.org/2000/svg">
  <sodipodi:namedview
     id="namedview1"
     pagecolor="#ffffff"
     bordercolor="#000000"
     borderopacity="0.25"
     inkscape:showpageshadow="2"
     inkscape:pageopacity="0.0"
     inkscape:pagecheckerboard="0"
     inkscape:deskcolor="#d1d1d1"
     inkscape:document-units="mm"
     showgrid="false"
     inkscape:zoom="0.86975705"
     inkscape:cx="376.54193"
     inkscape:cy="255.81857"
     inkscape:window-width="1280"
     inkscape:window-height="755"
     inkscape:window-x="0"
     inkscape:window-y="23"
     inkscape:window-maximized="1"
     inkscape:current-layer="layer1" />
  <defs
     id="defs1" />
  <g
     inkscape:label="Layer 1"
     inkscape:groupmode="layer"
     id="layer1"
     transform="translate(-0.99477157,-2.893936)"
     style="display:inline;opacity:1">
    <circle
       style="fill:#008080;stroke-width:0.15875"
       id="path1"
       cx="57.3424"
       cy="18.100122"
       r="10.495027" />
    <path
       id="text1"
       style="font-size:25.4px;fill:#00c146;fill-opacity:1;stroke-width:0.264583"
       d="m 56.341264,2.893936 c -1.439332,0 -2.683757,0.9482562 -3.733622,2.8447876 -1.032932,1.8965314 -1.820264,4.1657391 -2.36213,6.8073364 -0.524933,2.641597 -0.787549,4.995203 -0.787549,7.061068 0,0.80021 0.04932,1.544989 0.147795,2.235005 -0.638099,0.691028 -1.372035,1.267958 -2.205033,1.727544 -0.965199,0.524932 -1.829058,0.787032 -2.591057,0.787032 -1.185332,0 -1.98944,-0.389472 -2.412772,-1.168405 1.998131,-0.491066 3.411869,-1.151025 4.241601,-1.980757 0.846666,-0.846666 1.270207,-1.854156 1.270207,-3.022555 0,-0.999065 -0.296685,-1.786913 -0.889352,-2.362646 -0.592666,-0.592666 -1.379997,-0.888835 -2.362129,-0.888835 -1.100666,0 -2.091379,0.296169 -2.971912,0.888835 -0.863599,0.592666 -1.540851,1.39729 -2.031917,2.413289 -0.491066,0.999066 -0.736389,2.082566 -0.736389,3.250965 0,0.376409 0.02852,0.732248 0.07803,1.072802 -0.722621,0.749055 -1.376183,1.241684 -1.957503,1.467094 0.03387,-0.304799 0.05064,-0.541734 0.05064,-0.711067 0,-0.592667 -0.144149,-1.134675 -0.432015,-1.625741 -0.270933,-0.508 -0.677181,-1.117113 -1.219047,-1.828312 -0.372533,-0.4572 -0.651926,-0.838283 -0.838192,-1.143083 -0.169333,-0.3048 -0.254248,-0.584192 -0.254248,-0.838192 0,-0.423333 0.152537,-0.940176 0.457336,-1.549776 0.118534,-0.220133 0.211837,-0.440292 0.27957,-0.660425 0.06773,-0.220133 0.101802,-0.380541 0.101802,-0.482141 0,-0.186266 -0.0933,-0.322027 -0.279569,-0.406693 -0.186267,-0.08467 -0.516504,-0.127124 -0.990637,-0.127124 -1.015999,0 -1.684863,0.372695 -2.006596,1.117761 -0.372533,0.880532 -0.753617,1.735486 -1.143083,2.565218 -0.389466,0.812799 -0.728092,1.464887 -1.015959,1.955953 -0.363994,0.571991 -0.865678,1.266398 -1.499133,2.077909 -0.506281,0.461828 -1.064653,0.861672 -1.675867,1.198894 -0.965199,0.524932 -1.829057,0.787032 -2.591056,0.787032 -1.185332,0 -1.98944,-0.389472 -2.412772,-1.168405 1.998131,-0.491066 3.411869,-1.151025 4.241601,-1.980757 0.846666,-0.846666 1.270207,-1.854156 1.270207,-3.022555 0,-0.999065 -0.296169,-1.786913 -0.888835,-2.362646 -0.592666,-0.592666 -1.379997,-0.888835 -2.36213,-0.888835 -1.100665,0 -2.091379,0.296169 -2.971911,0.888835 -0.08778,0.06024 -0.17238,0.124518 -0.256315,0.189136 -0.172121,-0.14027 -0.430494,-0.214458 -0.784965,-0.214458 -1.151466,0 -2.176249,-0.07601 -3.073714,-0.228409 0.846665,-2.302931 1.270206,-4.427991 1.270206,-6.3753219 0,-1.3546653 -0.321849,-2.4213889 -0.965316,-3.2003215 -0.626532,-0.7789325 -1.481485,-1.1684041 -2.565218,-1.1684041 -0.880532,0 -1.685156,0.2285467 -2.413289,0.6857463 -0.711199,0.4571995 -1.278372,1.1512278 -1.701705,2.0825602 -0.4063995,0.9143991 -0.6097818,2.0403564 -0.6097818,3.378088 0,1.337732 0.2626158,2.52344 0.7875488,3.556372 0.524933,1.015999 1.303876,1.845788 2.336808,2.489254 -0.863599,1.845732 -1.811855,3.377937 -2.844787,4.597136 -1.0329326,1.219198 -1.9895769,1.828829 -2.8701094,1.828829 -0.8635991,0 -1.5156867,-0.668864 -1.9559529,-2.006596 -0.4233329,-1.354666 -0.6351034,-3.327188 -0.6351034,-5.917985 0,-2.472265 0.2542279,-5.232635 0.7622274,-8.2806319 0.033867,-0.270933 0.050643,-0.4570223 0.050643,-0.5586222 0,-0.965199 -0.5587846,-1.4479736 -1.6763835,-1.4479736 -0.6773326,0 -1.1595904,0.1609248 -1.4474568,0.4826578 C 1.9940452,6.0182018 1.7822748,6.6110557 1.6298749,7.4915882 1.206542,9.8622524 0.99477157,12.537708 0.99477157,15.517972 c 0,3.488263 0.43192903,6.256505 1.29552813,8.305436 0.8635992,2.048931 2.1756458,3.073714 3.9367106,3.073714 1.710265,0 3.4122999,-0.829789 5.1056317,-2.489254 1.710265,-1.676398 3.16646,-3.776293 4.368725,-6.299357 0.900023,0.203231 1.919201,0.300774 3.043226,0.304891 -0.435065,0.949738 -0.655774,1.973437 -0.655774,3.073198 0,1.676398 0.491162,2.997349 1.473295,3.962548 0.982132,0.965199 2.362317,1.447974 4.140315,1.447974 1.303866,0 2.523126,-0.32185 3.657658,-0.965316 0.269428,-0.150562 0.52309,-0.304935 0.763778,-0.461987 0.245778,-0.05794 0.482523,-0.199853 0.709517,-0.426847 0.151874,-0.147656 0.3004,-0.297726 0.445968,-0.449585 5.04e-4,-5.26e-4 10e-4,-0.001 0.0015,-0.0016 0.279198,-0.249168 0.529697,-0.505104 0.746208,-0.768428 0.08743,-0.101237 0.161637,-0.214735 0.225309,-0.338481 0.0864,-0.106903 0.173703,-0.213205 0.257349,-0.321944 0.524933,-0.660399 1.049648,-1.490188 1.574581,-2.489254 0.237066,0.270933 0.491294,0.592783 0.762227,0.965316 0.270933,0.3556 0.490575,0.728295 0.659908,1.117761 0.186267,0.389467 0.287958,0.804103 0.304891,1.244369 l -0.685746,-0.07597 c -0.287866,-0.0508 -0.541578,-0.07648 -0.761711,-0.07648 -0.626532,0 -1.100919,0.160925 -1.422652,0.482658 -0.321733,0.321733 -0.482658,0.702817 -0.482658,1.143083 0,0.507999 0.228547,0.965093 0.685746,1.371492 0.474133,0.4064 1.151385,0.609782 2.031918,0.609782 0.931332,0 1.735957,-0.28778 2.413289,-0.863513 1.134532,-0.03387 2.082789,-0.237249 2.844788,-0.609782 0.477988,-0.238994 0.968767,-0.603732 1.472261,-1.091406 0.145349,0.19753 0.306304,0.383776 0.483692,0.558105 0.982132,0.965199 2.361801,1.447974 4.139799,1.447974 1.303865,0 2.523125,-0.32185 3.657658,-0.965316 0.850255,-0.475142 1.556765,-0.982614 2.1208,-1.522387 0.06854,0.155663 0.139163,0.308897 0.216008,0.455269 0.728132,1.354665 1.837314,2.032434 3.327445,2.032434 1.083733,0 2.048765,-0.288297 2.895431,-0.86403 0.413124,-0.275416 0.810569,-0.588368 1.192692,-0.93741 0.09215,0.531131 0.227462,0.946152 0.407727,1.242301 0.254,0.372533 0.643471,0.559139 1.168404,0.559139 0.524933,0 0.906016,-0.13576 1.143083,-0.406693 0.254,-0.287867 0.474158,-0.829875 0.660425,-1.625741 0.270933,-1.100666 0.643111,-2.167389 1.117244,-3.200321 0.474133,-1.049866 0.982589,-1.904819 1.524455,-2.565219 0.558799,-0.660399 1.066738,-0.990637 1.523938,-0.990637 0.186266,0 0.338286,0.07601 0.456819,0.22841 0.135467,0.1524 0.203606,0.381463 0.203606,0.686263 0,0.524933 -0.160925,0.973638 -0.482658,1.346171 -0.321733,0.3556 -0.855353,0.694226 -1.600419,1.015959 -0.677333,0.287866 -1.015959,0.761736 -1.015959,1.422135 0,1.236132 0.39786,2.226846 1.193726,2.971912 0.795865,0.745066 1.845813,1.117761 3.149678,1.117761 1.066799,0 1.989891,-0.279392 2.768823,-0.838192 0.326144,-0.233972 0.65041,-0.502735 0.973584,-0.802018 0.09603,0.174618 0.200872,0.342128 0.321428,0.497127 0.609599,0.762 1.39693,1.143083 2.362129,1.143083 1.286932,0 2.193248,-0.728098 2.718181,-2.184363 l -0.02532,0.406177 c 0,0.626533 0.135244,1.083626 0.406177,1.371493 0.287866,0.270933 0.719795,0.406693 1.295528,0.406693 0.592666,0 1.01569,-0.13576 1.26969,-0.406693 0.270933,-0.287867 0.406694,-0.753348 0.406694,-1.396814 0,-1.168399 0.05085,-2.218347 0.152445,-3.149679 0.1016,-0.948266 0.245232,-1.938979 0.431498,-2.971912 0.169334,-0.965199 0.254248,-1.642451 0.254248,-2.031917 0,-0.372533 -0.110079,-0.660313 -0.330212,-0.863513 -0.220133,-0.2032 -0.533595,-0.304891 -0.939994,-0.304891 -0.389467,0 -0.744869,0.03407 -1.066602,0.101802 -0.08467,-0.372532 -0.194746,-0.62676 -0.330212,-0.762227 -0.118533,-0.1524 -0.364373,-0.22841 -0.736906,-0.22841 -1.168399,0 -2.277063,0.372179 -3.326929,1.117245 -1.032932,0.728132 -1.862721,1.70207 -2.489254,2.921268 -0.598688,1.148835 -0.90822,2.368118 -0.934826,3.656108 -0.359,0.383448 -0.677033,0.693806 -0.945162,0.915706 -0.491066,0.4064 -0.999005,0.609782 -1.523938,0.609782 -0.491066,0 -0.914091,-0.13576 -1.26969,-0.406693 -0.338666,-0.287867 -0.542049,-0.660045 -0.609782,-1.117245 1.151465,-0.609599 1.964478,-1.304144 2.438611,-2.083077 0.474133,-0.778932 0.711067,-1.633885 0.711067,-2.565218 0,-0.846666 -0.262616,-1.557987 -0.787548,-2.13372 -0.508,-0.575732 -1.185252,-0.863513 -2.031918,-0.863513 -0.914399,0 -1.896724,0.482775 -2.94659,1.447974 -1.049865,0.948266 -1.980829,2.480471 -2.793628,4.597135 0,-0.931332 0.02517,-1.837131 0.07597,-2.717663 2.252131,-2.455331 3.877639,-4.597167 4.876705,-6.425965 0.999065,-1.8457311 1.498616,-3.6237761 1.498616,-5.334041 0,-1.0667989 -0.245323,-1.930657 -0.736389,-2.5910563 C 66.052556,3.232562 65.42615,2.893936 64.647217,2.893936 c -1.456265,0 -2.709595,0.9650325 -3.75946,2.8954305 -1.032933,1.9134647 -1.820264,4.2843635 -2.36213,7.1122275 -0.524933,2.827864 -0.787549,5.545777 -0.787549,8.153507 0,0.338661 0.0031,0.651792 0.0072,0.954464 -0.600187,0.677485 -1.113356,1.185481 -1.531173,1.508952 -0.524933,0.389466 -1.134563,0.58446 -1.828829,0.58446 -0.440266,0 -0.795668,-0.144148 -1.066601,-0.432015 -0.270934,-0.304799 -0.465928,-0.80435 -0.584461,-1.498616 1.913465,-2.607731 3.429411,-5.240729 4.547009,-7.89926 1.117599,-2.65853 1.676384,-4.9953598 1.676384,-7.0104244 0,-1.4054653 -0.237452,-2.480577 -0.711585,-3.2256429 C 57.788858,3.2750195 57.154063,2.893936 56.341264,2.893936 Z m -0.558622,2.5145752 c 0.474133,0 0.711068,0.6436995 0.711068,1.9306315 0,1.6425317 -0.355403,3.4625173 -1.066602,5.4606483 -0.711199,1.981198 -1.66836,3.962626 -2.870626,5.943824 0.03387,-1.913465 0.237249,-3.911669 0.609782,-5.994467 0.372533,-2.082797 0.804462,-3.8267731 1.295528,-5.2322384 0.491066,-1.4054652 0.931384,-2.1083984 1.32085,-2.1083984 z m 8.330757,0 c 0.220134,0 0.389447,0.1441486 0.50798,0.432015 0.118533,0.2878663 0.178284,0.7025023 0.178284,1.2443685 0,1.1853321 -0.347531,2.5062836 -1.041797,3.9625483 -0.677333,1.456266 -1.540674,2.802382 -2.59054,4.038514 0.220133,-1.744132 0.499526,-3.352864 0.838192,-4.826062 0.355599,-1.4901322 0.71939,-2.6669351 1.091923,-3.5305342 C 63.469974,5.8488284 63.8086,5.4085112 64.113399,5.4085112 Z M 13.872538,7.719998 c 0.321734,0 0.575961,0.169313 0.762228,0.5079793 0.186266,0.321733 0.279053,0.8380602 0.279053,1.5492595 0,1.2361322 -0.330238,2.8024062 -0.990638,4.6989382 -1.066799,-0.795866 -1.599902,-2.023515 -1.599902,-3.68298 0,-0.9821319 0.143632,-1.7353939 0.431498,-2.2603267 0.287867,-0.5418661 0.660562,-0.8128703 1.117761,-0.8128703 z m 63.753732,9.525 -0.482658,2.565218 c -0.3048,1.693332 -0.651814,2.870135 -1.04128,3.530534 -0.389466,0.660399 -0.821396,0.990637 -1.295528,0.990637 -0.321733,0 -0.583833,-0.126855 -0.787032,-0.380855 -0.186267,-0.270933 -0.27957,-0.660405 -0.27957,-1.168404 0,-0.948266 0.177701,-1.845677 0.533301,-2.692342 0.355599,-0.846666 0.829986,-1.523918 1.422652,-2.031918 0.592666,-0.524933 1.235849,-0.795937 1.930115,-0.81287 z m -54.228732,0.177767 c 0.3048,0 0.541735,0.101691 0.711068,0.304891 0.186267,0.186266 0.27957,0.439977 0.27957,0.761711 0,0.626532 -0.287781,1.176929 -0.863513,1.651062 -0.575733,0.474132 -1.363065,0.830051 -2.36213,1.067118 v -0.05116 c 0,-1.032932 0.211253,-1.913566 0.634586,-2.641699 0.440267,-0.728133 0.973887,-1.091923 1.600419,-1.091923 z m 20.828187,0 c 0.304799,0 0.541734,0.101691 0.711067,0.304891 0.186267,0.186266 0.279053,0.439977 0.279053,0.761711 0,0.626532 -0.28778,1.176929 -0.863513,1.651062 -0.575733,0.474132 -1.363064,0.830051 -2.36213,1.067118 v -0.05116 c 0,-1.032932 0.211771,-1.913566 0.635103,-2.641699 0.440267,-0.728133 0.973887,-1.091923 1.60042,-1.091923 z" />
    <circle
       style="fill:#0082c1;fill-opacity:1;stroke-width:0.264583"
       id="path2"
       cx="41.219608"
       cy="9.8866167"
       r="4.410954" />
    <circle
       style="fill:#cb005f;fill-opacity:1;stroke-width:0.264583"
       id="path3"
       cx="31.18088"
       cy="6.5403762"
       r="2.8899353" />
    <circle
       style="fill:#ee5900;fill-opacity:1;stroke-width:0.167105"
       id="path3-6"
       cx="22.05477"
       cy="7.1487875"
       r="1.8252223" />
  </g>
</svg>
