<svg xmlns="http://www.w3.org/2000/svg" viewBox="0 0 450 450" class="css-8au533"><path d="M 273.71392896287466 253.125 A 56.25 56.25 0 0 0 225 168.75 L 225 225 Z" fill="#1f1313" stroke="none" fill-rule="evenodd"></path><path d="M 176.28607103712534 253.125 A 56.25 56.25 0 0 0 273.71392896287466 253.125 L 225 225 Z" fill="#675b5b" stroke="none" fill-rule="evenodd"></path><path d="M 225 168.75 A 56.25 56.25 0 0 0 176.28607103712534 253.125 L 225 225 Z" fill="#f8ebeb" stroke="none" fill-rule="evenodd"></path><path d="M 322.4278579257493 281.25 A 112.5 112.5 0 0 0 225 112.5 L 225 225 Z M 273.71392896287466 253.125 A 56.25 56.25 0 0 0 225 168.75 L 225 225 Z" fill="#e4393f" stroke="none" fill-rule="evenodd"></path><path d="M 127.57214207425065 281.25 A 112.5 112.5 0 0 0 322.4278579257493 281.25 L 225 225 Z M 176.28607103712534 253.125 A 56.25 56.25 0 0 0 273.71392896287466 253.125 L 225 225 Z" fill="#4978a9" stroke="none" fill-rule="evenodd"></path><path d="M 224.99999999999997 112.5 A 112.5 112.5 0 0 0 127.57214207425065 281.25 L 225 225 Z M 225 168.75 A 56.25 56.25 0 0 0 176.28607103712534 253.125 L 225 225 Z" fill="#f1cf26" stroke="none" fill-rule="evenodd"></path><path d="M 225 393.75 A 168.75 168.75 0 0 0 371.14178688862404 140.625 L 225 225 Z M 225 337.5 A 112.5 112.5 0 0 0 322.4278579257493 168.75 L 225 225 Z" fill="#a4418a" stroke="none" fill-rule="evenodd"></path><path d="M 78.85821311137599 140.625 A 168.75 168.75 0 0 0 225 393.75 L 225 225 Z M 127.57214207425066 168.75 A 112.5 112.5 0 0 0 225 337.5 L 225 225 Z" fill="#3e9a5e" stroke="none" fill-rule="evenodd"></path><path d="M 371.141786888624 140.62499999999994 A 168.75 168.75 0 0 0 78.85821311137599 140.625 L 225 225 Z M 322.4278579257493 168.74999999999994 A 112.5 112.5 0 0 0 127.57214207425066 168.75 L 225 225 Z" fill="#eb8d3b" stroke="none" fill-rule="evenodd"></path><path d="M 419.8557158514987 112.50000000000001 A 225 225 0 0 0 225 0 L 225 225 Z M 371.14178688862404 140.625 A 168.75 168.75 0 0 0 225 56.25 L 225 225 Z" fill="#e8633d" stroke="none" fill-rule="evenodd"></path><path d="M 419.8557158514987 337.5 A 225 225 0 0 0 419.8557158514987 112.50000000000001 L 225 225 Z M 371.14178688862404 309.375 A 168.75 168.75 0 0 0 371.14178688862404 140.625 L 225 225 Z" fill="#c43d64" stroke="none" fill-rule="evenodd"></path><path d="M 225 450 A 225 225 0 0 0 419.8557158514987 337.5 L 225 225 Z M 225 393.75 A 168.75 168.75 0 0 0 371.14178688862404 309.375 L 225 225 Z" fill="#765c99" stroke="none" fill-rule="evenodd"></path><path d="M 30.1442841485013 337.5 A 225 225 0 0 0 225 450 L 225 225 Z M 78.85821311137596 309.375 A 168.75 168.75 0 0 0 225 393.75 L 225 225 Z" fill="#438883" stroke="none" fill-rule="evenodd"></path><path d="M 30.144284148501328 112.49999999999997 A 225 225 0 0 0 30.1442841485013 337.5 L 225 225 Z M 78.85821311137599 140.625 A 168.75 168.75 0 0 0 78.85821311137596 309.375 L 225 225 Z" fill="#97b442" stroke="none" fill-rule="evenodd"></path><path d="M 224.99999999999997 0 A 225 225 0 0 0 30.144284148501328 112.49999999999997 L 225 225 Z M 224.99999999999997 56.25 A 168.75 168.75 0 0 0 78.85821311137599 140.625 L 225 225 Z" fill="#eeae30" stroke="none" fill-rule="evenodd"></path></svg>
